General
Complete name                    : We're No Angels (1989) .mkv
Format                           : Matroska
File size                        : 1.47 GiB
Duration                         : 1h 41mn
Overall bit rate                 : 2 058 Kbps


Video
ID                               : 1
Format                           : AVC
Duration                         : 1h 41mn
Bit rate                         : 1 057 Kbps
Width                            : 710 pixels
Height                           : 426 pixels
Display aspect ratio             : 2.35:1
Original display aspect ratio    : 2.35:1
Frame rate                       : 25.000 fps
Resolution                       : 8 bits
Colorimetry                      : 4:2:0
Scan type                        : Progressive
Bits/(Pixel*Frame)               : 0.140
Stream size                      : 771 MiB (51%)
Writing library                  : x264 core 79


Audio #1
ID                               : 2
Format                           : MPEG Audio
Format version                   : Version 1
Format profile                   : Layer 3
Mode                             : Joint stereo / MS Stereo
Codec ID                         : A_MPEG/L3
Codec ID/Hint                    : MP3
Duration                         : 1h 41mn
Bit rate mode                    : Constant
Bit rate                         : 128 Kbps
Channel(s)                       : 2 channels
Sampling rate                    : 48.0 KHz
Stream size                      : 93.4 MiB (6%)
Writing library                  : LAME3.98
Language                         : German

Audio #2
ID                               : 3
Format                           : AC-3
Format/Info                      : Audio Coding 3
Codec ID                         : A_AC3
Duration                         : 1h 41mn
Bit rate mode                    : Constant
Bit rate                         : 448 Kbps
Channel(s)                       : 6 channels
Channel positions                : Front: L C R, Surround: L R, LFE
Sampling rate                    : 48.0 KHz
Stream size                      : 327 MiB (22%)
Language                         : English

Audio #3
ID                               : 4
Format                           : MPEG Audio
Format version                   : Version 1
Format profile                   : Layer 3
Mode                             : Joint stereo / MS Stereo
Codec ID                         : A_MPEG/L3
Codec ID/Hint                    : MP3
Duration                         : 1h 41mn
Bit rate mode                    : Constant
Bit rate                         : 128 Kbps
Channel(s)                       : 2 channels
Sampling rate                    : 48.0 KHz
Stream size                      : 93.4 MiB (6%)
Writing library                  : LAME3.98
Language                         : Spanish

Audio #4
ID                               : 5
Format                           : MPEG Audio
Format version                   : Version 1
Format profile                   : Layer 3
Mode                             : Joint stereo / MS Stereo
Codec ID                         : A_MPEG/L3
Codec ID/Hint                    : MP3
Duration                         : 1h 41mn
Bit rate mode                    : Constant
Bit rate                         : 128 Kbps
Channel(s)                       : 2 channels
Sampling rate                    : 48.0 KHz
Stream size                      : 93.4 MiB (6%)
Writing library                  : LAME3.98
Language                         : French

Audio #5
ID                               : 6
Format                           : MPEG Audio
Format version                   : Version 1
Format profile                   : Layer 3
Mode                             : Joint stereo / MS Stereo
Codec ID                         : A_MPEG/L3
Codec ID/Hint                    : MP3
Duration                         : 1h 41mn
Bit rate mode                    : Constant
Bit rate                         : 128 Kbps
Channel(s)                       : 2 channels
Sampling rate                    : 48.0 KHz
Stream size                      : 93.4 MiB (6%)
Writing library                  : LAME3.98
Language                         : Italian

Text #1
Language                         : Arabic

Text #2
Language                         : Bulgarian

Text #3
Language                         : Czech

Text #4
Language                         : Danish

Text #5
Language                         : German

Text #6
Language                         : Greek

Text #7
Language                         : English

Text #8
Language                         : Spanish

Text #9
Language                         : French

Text #10
Language                         : ????xxxx????

Text #11
Language                         : Croatian

Text #12
Language                         : Icelandic

Text #13
Language                         : Italian

Text #14
Language                         : Hungarian

Text #15
Language                         : Dutch

Text #16
Language                         : Norwegian

Text #17
Language                         : Polish

Text #18
Language                         : Portuguese

Text #19
Language                         : Slovenian

Text #20
Language                         : Serbian

Text #21
Language                         : Finnish

Text #22
Language                         : Swedish

Text #23
Language                         : Turkish

Text #24
Language                         : English



